<svg xmlns="http://www.w3.org/2000/svg" viewBox="0 0 460.31 182.57"><defs><style>.cls-1{fill:#ffffff;}.cls-2{fill:#ffffff;}</style></defs><g id="Layer_2" data-name="Layer 2"><g id="Layer_1-2" data-name="Layer 1"><path class="cls-1" d="M78.85,16v8H68.54V50H78.85v8H48.74V50H59.05V24H48.74V16Z"/><path class="cls-1" d="M113.34,58,98.22,30.11l-1.94-5.36h-.9l1.31,5.36V58H87.23V16H101.5l15.12,27.92,1.93,5.33h.91l-1.32-5.33V16h9.46V58Z"/><path class="cls-1" d="M161.47,16,178.4,58h-10l-3-7.27H145.21L142.34,58h-10l16.93-42Zm.91,27.07-6.71-17.7h-.62l-6.7,17.7Z"/><path class="cls-1" d="M209.28,58,194.17,30.11l-1.94-5.36h-.91l1.32,5.36V58h-9.46V16h14.27l15.11,27.92,1.94,5.33h.91l-1.32-5.33V16h9.46V58Z"/><path class="cls-1" d="M231.93,37c0-6.65,2-11.89,5.89-15.79s9.2-5.8,15.88-5.8q9.62,0,15.47,4.92A15.54,15.54,0,0,1,275,32.69H264.86c0-.24-.09-.56-.18-1a11.65,11.65,0,0,0-.82-2.14,11,11,0,0,0-1.81-2.69,10,10,0,0,0-3.26-2.14,13,13,0,0,0-5.09-.94c-3.78,0-6.68,1.23-8.76,3.72A14.23,14.23,0,0,0,241.83,37a14.33,14.33,0,0,0,3.14,9.5c2.08,2.49,5,3.72,8.73,3.72s6.88-1.38,8.38-3.14a10.86,10.86,0,0,0,2.6-4.86l.18-.88H275a15.41,15.41,0,0,1-5.83,12.33q-5.85,4.94-15.47,4.93c-6.68,0-12-1.94-15.88-5.83S231.93,43.64,231.93,37Z"/><path class="cls-1" d="M312,16v8H301.68V50H312v8H281.88V50h10.31V24H281.88V16Z"/><path class="cls-1" d="M344.66,16,361.6,58h-10l-3-7.27H328.4L325.53,58h-10l16.94-42Zm.91,27.07-6.71-17.7h-.61l-6.71,17.7Z"/><path class="cls-1" d="M400.15,49.71V58H366.37V16h9.47V49.71Z"/><path class="cls-1" d="M0,86.28V78H38.14v8.29H23.82V120H14.33V86.28Z"/><path class="cls-1" d="M43.83,120V78H78.25v8h-25v8.64H74.36v7.67H53.29V112h25v8Z"/><path class="cls-1" d="M85.17,99c0-6.65,2-11.89,5.88-15.79s9.2-5.8,15.88-5.8q9.63,0,15.47,4.92a15.51,15.51,0,0,1,5.83,12.37H118.1c0-.24-.09-.56-.18-1a12.47,12.47,0,0,0-.82-2.14,10.79,10.79,0,0,0-1.82-2.69A9.79,9.79,0,0,0,112,86.75a13,13,0,0,0-5.1-.94c-3.78,0-6.68,1.23-8.76,3.72A14.22,14.22,0,0,0,95.07,99a14.33,14.33,0,0,0,3.13,9.5c2.08,2.49,5,3.72,8.73,3.72s6.89-1.38,8.38-3.14a10.9,10.9,0,0,0,2.61-4.86l.18-.88h10.13a15.38,15.38,0,0,1-5.83,12.33q-5.84,4.94-15.47,4.93-10,0-15.88-5.83T85.17,99Z"/><path class="cls-1" d="M166.08,120V102.25h-20.3V120h-9.46V78h9.46V94h20.3V78h9.47v42Z"/><path class="cls-1" d="M211.26,120,196.14,92.11l-1.93-5.36h-.91l1.32,5.36V120h-9.46V78h14.26l15.12,27.92,1.93,5.33h.91l-1.32-5.33V78h9.47v42Z"/><path class="cls-1" d="M277.47,99q0,10-5.89,15.77t-15.91,5.83q-10,0-15.88-5.83T233.91,99c0-6.65,2-11.89,5.88-15.79s9.2-5.8,15.88-5.8,12,1.94,15.91,5.8S277.47,92.34,277.47,99Zm-9.9,0a14.23,14.23,0,0,0-3.11-9.46c-2.08-2.49-5-3.72-8.76-3.72S249,87,246.94,89.53A14.24,14.24,0,0,0,243.81,99a14.33,14.33,0,0,0,3.13,9.5c2.08,2.49,5,3.72,8.76,3.72s6.68-1.23,8.76-3.72A14.32,14.32,0,0,0,267.57,99Z"/><path class="cls-1" d="M319.63,111.71V120H285.85V78h9.46v33.72Z"/><path class="cls-1" d="M365.89,99q0,10-5.89,15.77t-15.91,5.83q-10,0-15.88-5.83T322.32,99c0-6.65,2-11.89,5.89-15.79s9.2-5.8,15.88-5.8,12,1.94,15.91,5.8S365.89,92.34,365.89,99ZM356,99a14.23,14.23,0,0,0-3.11-9.46c-2.08-2.49-5-3.72-8.76-3.72s-6.68,1.23-8.76,3.72A14.24,14.24,0,0,0,332.23,99a14.33,14.33,0,0,0,3.13,9.5c2.08,2.49,5,3.72,8.76,3.72s6.68-1.23,8.76-3.72A14.32,14.32,0,0,0,356,99Z"/><path class="cls-1" d="M394.72,105.73V98.41h21.53V120H407.7v-5.51h-.39c-.11.15-.26.38-.46.65a13.83,13.83,0,0,1-1.47,1.46,15.94,15.94,0,0,1-2.55,1.85,15.44,15.44,0,0,1-3.69,1.46,16.66,16.66,0,0,1-4.89.68q-9.81,0-15.47-5.83T373.07,99c0-6.65,2-11.89,5.89-15.79s9.19-5.8,15.87-5.8c5.69,0,10.4,1.44,14.13,4.28a19.3,19.3,0,0,1,7.11,11.92H405.88c-1.61-4.8-5.42-7.79-11.05-7.79-3.78,0-6.68,1.23-8.76,3.72A14.22,14.22,0,0,0,383,99a15.08,15.08,0,0,0,2.87,9.55q2.85,3.66,8.7,3.67c3.43,0,6.33-1,7.85-2.29a10.19,10.19,0,0,0,3-3.54l.29-.65Z"/><path class="cls-1" d="M440.1,96.77,449.94,78h10.37l-15.23,27.42V120H434.5V105.41L419.27,78h10.4l9.81,18.78Z"/><path class="cls-1" d="M36.39,179.32c-2.67,1.78-7,2.66-13.07,2.66H3.9V140H24.35q13.92,0,13.91,11.1A8.77,8.77,0,0,1,36,157.14a11.52,11.52,0,0,1-3.4,2.4l-.68.18v.44a8.8,8.8,0,0,1,.94.17,11.21,11.21,0,0,1,2,.82,11.54,11.54,0,0,1,2.55,1.73,10.15,10.15,0,0,1,2.9,7.35C40.37,174.51,39.05,177.53,36.39,179.32ZM22.56,147.47h-9.2v9.79h9.2c3.87,0,5.8-1.65,5.8-4.93S26.43,147.47,22.56,147.47ZM23.76,164H13.36v10.49h10.4c4.48,0,6.71-1.73,6.71-5.21S28.24,164,23.76,164Z"/><path class="cls-1" d="M90.82,161c0,6.65-2,11.89-5.89,15.76S75.7,182.57,69,182.57s-12-1.94-15.88-5.83-5.88-9.11-5.88-15.76,2-11.9,5.88-15.79,9.2-5.81,15.88-5.81,12,1.94,15.91,5.81S90.82,154.33,90.82,161Zm-9.9,0a14.23,14.23,0,0,0-3.11-9.47c-2.08-2.49-5-3.72-8.76-3.72s-6.68,1.23-8.76,3.72a15.92,15.92,0,0,0,0,19c2.08,2.49,5,3.72,8.76,3.72s6.68-1.23,8.76-3.72A14.31,14.31,0,0,0,80.92,161Z"/><path class="cls-1" d="M121.7,140l16.93,42h-10l-3-7.26H105.44L102.57,182h-10l16.93-42Zm.91,27.07-6.71-17.69h-.62L108.57,167Z"/><path class="cls-1" d="M152.87,167.51V182h-9.46V140h18c12,0,17.22,4.37,17.22,13.62,0,3.67-1.17,6.92-2.66,8.59a12.4,12.4,0,0,1-4.05,3.25l-.79.23L181.55,182H170.89l-9.26-14.47ZM161.4,148h-8.53v11.57h8.53c4.95,0,7.32-1.79,7.32-5.77S166.29,147.94,161.4,148Z"/><path class="cls-1" d="M187.85,182V140h17q10.24,0,16,5.54c3.84,3.72,5.74,8.87,5.74,15.47s-1.9,11.74-5.71,15.44-9.17,5.56-16,5.56Zm17-8.29q5.72,0,8.79-3.49a15.48,15.48,0,0,0,0-18.45q-3.07-3.48-8.79-3.49h-7.56v25.43Z"/><polygon class="cls-2" points="26.02 20.49 26.02 16.45 43.86 11.67 43.86 0 26.02 4.78 26.02 11.67 3.9 17.6 3.9 58 14.33 58 14.33 41.14 36.53 41.14 36.53 32.67 14.33 32.67 14.33 23.62 26.02 20.49"/></g></g></svg>