<svg xmlns="http://www.w3.org/2000/svg" viewBox="0 0 443.44 181.41"><defs><style>.cls-1{fill:#ffffff;}.cls-2{fill:#ffffff;}</style></defs><g id="Layer_2" data-name="Layer 2"><g id="Layer_1-2" data-name="Layer 1"><path class="cls-1" d="M101.07,32.22l-8,25.19H73.42v-42H86.63V40.63l-2.17,6h1.26l2.58-6L96.36,15.4H116v42H102.77V32.22l2.17-6h-1.26Z"/><path class="cls-1" d="M153.75,57.41V40.63h-16.2V57.41H124.34v-42h13.21V29.82h16.2V15.4h13.18v42Z"/><path class="cls-1" d="M172,26.21V15.4h40.43V26.21H198.84v31.2H185.65V26.21Z"/><path class="cls-1" d="M217.53,57.41v-42h37.21V25.63h-24v5.56h19.81V40.8H230.74v6.42h24V57.41Z"/><path class="cls-1" d="M274.1,15.4l5.16,11.22h.91l5.15-11.22H300L288.46,35.21,302,57.41H287.32l-7.15-13.33h-.91l-7.12,13.33H257.43L271,35.21,259.4,15.4Z"/><path class="cls-1" d="M18.11,102.63V93.72H29.5a3.53,3.53,0,0,0-.5-2A5.68,5.68,0,0,0,27.83,90c-1-1-3.25-2-6.3-2s-5.12.93-6.15,2.17a7,7,0,0,0-1.64,3.39l-.06.62H0A15.41,15.41,0,0,1,6,81.68q5.92-4.87,15.55-4.86c6.89,0,12.28,1.9,16.23,5.68s5.92,9.14,5.92,16-2,12.07-5.92,15.85S28.42,120,21.53,120Q11.92,120,6,115.14a15.34,15.34,0,0,1-6-12.51H13.68a5,5,0,0,0,.53,2.14,5.3,5.3,0,0,0,1.17,1.87,8.74,8.74,0,0,0,6.15,2.17c3.2,0,5.66-1,6.65-2.2a5.88,5.88,0,0,0,1.56-3.4v-.58Z"/><path class="cls-1" d="M77.81,97.94l15.41,21.47H78.16L64.07,98.64v20.77H50.86v-42H64.07V97.71L77.58,77.4H92.64Z"/><path class="cls-1" d="M93.81,98.41c0-6.83,2-12.16,5.92-15.94s9.34-5.65,16.23-5.65c6.44,0,11.66,1.61,15.61,4.8a15.4,15.4,0,0,1,5.92,12.6H123.81a4.85,4.85,0,0,0-.56-2.17,6.2,6.2,0,0,0-1.2-1.9A8.65,8.65,0,0,0,116,88q-8.35,0-8.35,10.37t8.35,10.4c2.9,0,5.07-1,6.09-2.2a6.68,6.68,0,0,0,1.7-3.4l.06-.58h13.68a15.37,15.37,0,0,1-5.92,12.57c-3.95,3.19-9.17,4.8-15.61,4.8-6.89,0-12.28-1.9-16.23-5.68S93.81,105.23,93.81,98.41Z"/><path class="cls-1" d="M172.88,119.41V88.21H157.59v31.2H144.37v-42h41.72v42Z"/><path class="cls-1" d="M194.47,119.41v-42h37.21V87.63h-24v5.56h19.8v9.61h-19.8v6.42h24v10.19Z"/><path class="cls-1" d="M252.07,109.8v9.61H238.86v-42h19.22q10.19,0,14.79,4c3.05,2.72,4.57,6.76,4.57,12.15s-1.52,9.47-4.57,12.16-8,4-14.79,4Zm6-10.78c3.72,0,5.56-1.81,5.56-5.42s-1.84-5.39-5.56-5.39h-6V99Z"/><path class="cls-1" d="M279,88.21V77.4h40.43V88.21H305.77v31.2H292.59V88.21Z"/><path class="cls-1" d="M337.68,77.4v12H341q10.15,0,14.54,3.72c2.9,2.49,4.36,6.24,4.36,11.28s-1.46,8.79-4.36,11.28-7.77,3.72-14.54,3.72H324.46v-42Zm8.46,27a4.05,4.05,0,0,0-1.14-3.28,6.48,6.48,0,0,0-4-.91h-3.36v8.38H341a6.46,6.46,0,0,0,4-.93A4,4,0,0,0,346.14,104.41Zm31.38-27v42H364.31v-42Z"/><path class="cls-1" d="M428.55,94.22l-8,25.19H400.9v-42h13.21v25.23l-2.17,6h1.26l2.58-6,8.06-25.23h19.6v42H430.25V94.22l2.17-6h-1.26Z"/><path class="cls-1" d="M30.59,181.41v-31.2H15.29v31.2H2.08v-42H43.8v42Z"/><path class="cls-1" d="M80.74,139.4l16.7,42H83.64l-2.11-5.71H63.28l-2.08,5.71H47.4l16.67-42Zm-2.69,26.72-5.16-14h-1l-5.15,14Z"/><path class="cls-1" d="M114.23,171.8v9.61H101v-42h19.21c6.8,0,11.72,1.35,14.8,4s4.57,6.76,4.57,12.15-1.52,9.47-4.57,12.16-8,4-14.8,4Zm6-10.78c3.73,0,5.57-1.81,5.57-5.42s-1.84-5.39-5.57-5.39h-6V161Z"/><path class="cls-1" d="M141.12,150.21V139.4h40.43v10.81H167.93v31.2H154.75v-31.2Z"/><path class="cls-1" d="M216,181.41V164.63H199.83v16.78H186.62v-42h13.21v14.42H216V139.4h13.18v42Z"/><path class="cls-1" d="M237.6,181.41v-42h37.2v10.23h-24v5.56h19.81v9.61H250.81v6.42h24v10.19Z"/><path class="cls-1" d="M295.2,171.8v9.61H282v-42H301.2c6.8,0,11.72,1.35,14.8,4s4.57,6.76,4.57,12.15S319,165.07,316,167.76s-8,4-14.8,4Zm6-10.78c3.72,0,5.57-1.81,5.57-5.42s-1.85-5.39-5.57-5.39h-6V161Z"/><path class="cls-1" d="M340.37,139.4v12h3.37c6.77,0,11.6,1.23,14.53,3.72s4.37,6.24,4.37,11.28-1.47,8.79-4.37,11.28-7.76,3.72-14.53,3.72H327.16v-42Zm8.47,27a4.05,4.05,0,0,0-1.14-3.28,6.5,6.5,0,0,0-4-.91h-3.37v8.38h3.37a6.48,6.48,0,0,0,4-.93A4,4,0,0,0,348.84,166.41Zm31.37-27v42H367v-42Z"/><path class="cls-2" d="M48.65,21.27V33a7.34,7.34,0,0,1-2.13,5.63c-1.46,1.33-3.64,2-6.56,2V27.13L24.68,31.22v9.4c-2.92,0-5.09-.68-6.52-2A7.22,7.22,0,0,1,16,33a8,8,0,0,1,1.14-4.37h0l5.52-1.48,9.68-2.59V17.29l18.75-5V0L32.33,5v7.25l-9.68,2.59L0,20.93V33.2H0q.08,10,6.48,14.86c4.31,3.3,10.35,5,18.19,5.09V58H40V53.14Q51.74,53,58.2,48.05T64.65,33V17Z"/></g></g></svg>